<?xml version="1.0" encoding="UTF-8" standalone="no"?>
<!-- Created with Inkscape (http://www.inkscape.org/) -->

<svg
   version="1.1"
   id="svg48"
   width="601.33331"
   height="601.33331"
   viewBox="0 0 601.33331 601.33331"
   xmlns="http://www.w3.org/2000/svg"
   xmlns:svg="http://www.w3.org/2000/svg">
  <defs
     id="defs52" />
  <g
     id="g54">
    <path
       style="fill:#000000;stroke-width:1.33333"
       d="m 259.5136,556.22623 -40.72553,-23.55958 -0.0607,-24.33334 c -0.0333,-13.38333 0.26011,-24.33333 0.65222,-24.33333 1.0005,0 17.9416,9.63045 50.75461,28.85232 15.47376,9.06456 28.90001,16.48101 29.83607,16.48101 1.78827,0 33.96319,-18.48122 138.69635,-79.66695 l 63.33333,-36.99971 v -10.66667 -10.66666 l -60.2516,-0.34687 -60.25159,-0.34687 6.39367,-10.98646 c 3.51652,-6.04256 9.81352,-17.13647 13.99334,-24.65313 l 7.59965,-13.66667 h 67.92493 67.92493 v 47.77894 47.77896 l -39,22.7508 C 376.65496,535.29038 330.86861,561.98935 316.45289,570.36523 l -16.21377,9.4206 z M 142.66666,487.8631 c -25.3,-14.71147 -55.449997,-32.23068 -66.999996,-38.93157 L 54.666665,436.74808 V 299.23314 161.71821 l 32.999998,-19.3081 C 216.99818,66.739076 265.61447,38.277095 281.13984,29.142923 c 9.79359,-5.761941 18.3027,-10.476257 18.90915,-10.476257 0.60644,0 9.0935,4.707004 18.86014,10.460009 9.76664,5.753005 35.15752,20.545092 56.42419,32.871307 21.26666,12.326212 39.68753,23.105296 40.93526,23.953519 2.04635,1.391124 1.26799,3.334928 -7.94436,19.839649 -5.61713,10.06358 -10.8428,18.12749 -11.61261,17.9198 -0.76981,-0.20769 -22.8298,-12.86781 -49.02221,-28.133592 L 300.06686,67.821385 203.70009,124.10756 c -53.00172,30.95739 -98.62015,57.70725 -101.37429,59.44411 l -5.007521,3.15795 0.340859,112.94777 0.340858,112.94777 16.666664,9.71161 16.66667,9.71163 0.66666,-113.60397 0.66667,-113.60397 27.8714,-16.41023 c 15.32927,-9.02564 28.27236,-16.41024 28.76243,-16.41024 0.49006,0 4.08078,5.85 7.97937,13 6.49751,11.91639 90.19558,161.88102 98.65954,176.7716 l 3.65958,6.43825 30.10431,-53.77159 c 16.55739,-29.57438 35.1621,-62.77159 41.3438,-73.77159 6.18171,-11 16.80281,-29.9 23.60245,-42 23.39928,-41.6392 56.54279,-100.691364 63.98342,-113.999997 l 7.45442,-13.333332 33.53219,-0.356038 33.5322,-0.356037 -15.3949,27.022703 C 504.88958,120.22993 459.78224,199.8789 415.99393,277.33332 c -20.19457,35.72093 -77.35306,137.39713 -95.94232,170.66666 -10.44857,18.7 -19.45065,34.48605 -20.00462,35.08011 -0.55397,0.59406 -6.41557,-8.70594 -13.02579,-20.66667 -12.74456,-23.06041 -27.16802,-48.80284 -49.9115,-89.0801 -7.66074,-13.56667 -21.09436,-37.44993 -29.85249,-53.07392 l -15.92388,-28.40724 -0.6756,52.40724 c -0.37159,28.82399 -0.67159,78.9562 -0.66667,111.40492 0.005,32.4487 -0.29107,58.98623 -0.65773,58.97229 -0.36667,-0.014 -21.36667,-12.06203 -46.66667,-26.77351 z M 432.99125,300.33332 c 4.87392,-8.61666 11.07193,-19.56666 13.77337,-24.33333 l 4.9117,-8.66667 46.8285,-0.35038 46.82849,-0.3504 v 24.68373 24.68372 H 484.73145 424.12958 Z M 288.9394,281.09856 c -5.486,-9.77088 -16.56032,-29.76524 -24.6096,-44.4319 -8.04928,-14.66667 -21.31638,-38.77949 -29.48244,-53.58407 -8.16605,-14.80456 -14.84737,-27.25456 -14.84737,-27.66666 0,-0.4121 14.55,-0.7451 32.33333,-0.73999 l 32.33334,0.009 23.22222,42.19952 c 12.77221,23.20973 23.20585,42.85556 23.18584,43.65739 -0.0327,1.30802 -30.03503,56.19593 -31.54002,57.70093 -0.34142,0.34141 -5.1093,-7.37361 -10.5953,-17.14449 z m 181.52841,-46.76524 c 10.28245,-18.00837 48.21572,-85.78667 48.54269,-86.73495 0.20259,-0.58756 6.05809,2.20429 13.01224,6.2041 l 12.64391,7.2724 0.35288,40.12923 0.35289,40.12922 h -39.45075 -39.45073 z"
       id="path893" />
  </g>
</svg>
